# xmcd
#
# Track frame offsets: 
#        150
#        15475
#        35489
#        52274
#        71359
#        87981
#        107340
#        129588
#        144233
#        170192
#        184762
#        213235
#        228195
#
# Disc length: 3483 seconds
#
# Revision: 0
# Processed by: cddbd v1.5.2PL0 Copyright (c) Steve Scherf et al.
# Submitted via: ExactAudioCopy v1.2
#
DISCID=ad0d990d
DTITLE=King Of The World - Cincinnati
DYEAR=2016
DGENRE=Blues
TTITLE0=Voodoo
TTITLE1=Same Old Trouble
TTITLE2=Murder In The First Degree
TTITLE3=Hurt So Bad
TTITLE4=World On Fire
TTITLE5=Feel That Flame
TTITLE6=The Waiting Game
TTITLE7=Heart And Soul
TTITLE8=Howlin Dogs
TTITLE9=Better Luck Next Time
TTITLE10=Life In The Fast Lane
TTITLE11=She’s Allright
TTITLE12=No Way Out
EXTD=
EXTT0=
EXTT1=
EXTT2=
EXTT3=
EXTT4=
EXTT5=
EXTT6=
EXTT7=
EXTT8=
EXTT9=
EXTT10=
EXTT11=
EXTT12=
PLAYORDER=
